<svg fill="#000000" xmlns="http://www.w3.org/2000/svg"  viewBox="0 0 64 64" width="48px" height="48px"><path d="M32,10c12.131,0,22,9.869,22,22s-9.869,22-22,22s-22-9.869-22-22S19.869,10,32,10z M43.798,27.551	c1.055-0.762,1.971-1.712,2.695-2.794c-1.472,0.669-3.101,0.85-3.101,0.85s1.902-1.101,2.373-2.986	c-1.042,0.618-2.198,1.068-3.428,1.31c-0.985-1.049-2.387-1.705-3.94-1.705c-2.981,0-5.398,2.418-5.398,5.398	c0,0.423,0.14,1.229,0.14,1.229s-6.514,0.039-11.126-5.641c0,0-0.71,0.949-0.73,2.715c-0.034,2.993,2.4,4.492,2.4,4.492	s-1.224,0.033-2.445-0.675c0.109,4.636,4.33,5.36,4.33,5.36s-1.363,0.262-2.438,0.093c0.687,2.144,2.681,3.706,5.042,3.749	c-1.847,1.448-4.174,2.311-6.704,2.311c-0.435,0-0.865-0.025-1.288-0.076c1.253,1.357,5.226,2.425,8.275,2.425	c9.929,0,15.357-8.225,15.357-15.358C43.813,28.015,43.808,27.783,43.798,27.551z"/></svg>